<?xml version="1.0" encoding="UTF-8" standalone="no"?>
<svg
   xmlns:dc="http://purl.org/dc/elements/1.1/"
   xmlns:cc="http://creativecommons.org/ns#"
   xmlns:rdf="http://www.w3.org/1999/02/22-rdf-syntax-ns#"
   xmlns:svg="http://www.w3.org/2000/svg"
   xmlns="http://www.w3.org/2000/svg"
   viewBox="0 0 845 150"
   height="150"
   width="845"
   xml:space="preserve"
   version="1.1"
   id="svg2"><metadata
     id="metadata8"><rdf:RDF><cc:Work
         rdf:about=""><dc:format>image/svg+xml</dc:format><dc:type
           rdf:resource="http://purl.org/dc/dcmitype/StillImage" /></cc:Work></rdf:RDF></metadata><defs
     id="defs6"><clipPath
       id="clipPath16"
       clipPathUnits="userSpaceOnUse"><path
         id="path18"
         d="M 0,120 676,120 676,0 0,0 0,120 Z" /></clipPath></defs><g
     transform="matrix(1.25,0,0,-1.25,0,150)"
     id="g10"><g
       id="g12"><g
         clip-path="url(#clipPath16)"
         id="g14"><g
           transform="translate(596.2793,49.4756)"
           id="g20"><path
             id="path22"
             style="fill:#ffffff;fill-opacity:1;fill-rule:nonzero;stroke:none"
             d="M 0,0 C -0.144,3.177 0.516,5.575 1.985,7.186 2.479,7.668 3.246,8.072 4.294,8.395 5.34,8.705 6.396,8.687 7.444,8.339 8.491,7.99 9.411,7.186 10.218,5.925 11.023,4.671 11.426,2.781 11.426,0.26 11.354,-2.534 10.896,-4.562 10.063,-5.813 9.224,-7.077 8.257,-7.862 7.175,-8.176 6.092,-8.491 5.028,-8.454 3.979,-8.071 2.933,-7.687 2.2,-7.219 1.781,-6.656 0.732,-5.396 0.133,-3.176 0,0 m -9.063,0.511 c 0,-2.657 0.358,-5.208 1.081,-7.658 0.729,-2.458 1.933,-4.405 3.622,-5.857 1.606,-1.44 3.756,-2.471 6.456,-3.078 2.694,-0.596 5.362,-0.534 8.017,0.186 2.975,0.648 5.433,2.295 7.36,4.94 0.884,1.287 1.605,2.862 2.172,4.715 0.566,1.842 0.842,4.054 0.842,6.629 0,3.541 -0.677,6.638 -2.049,9.285 -1.448,2.974 -3.705,5.074 -6.752,6.278 C 9.032,16.919 6.059,17.177 2.752,16.734 -0.541,16.291 -3.239,14.858 -5.327,12.451 -6.615,11 -7.563,9.198 -8.16,7.026 -8.768,4.856 -9.063,2.684 -9.063,0.511 m 31.577,1.994 0,-10.164 c 0.015,-5.179 5.089,-8.655 9.803,-8.649 L 32.35,3.818 c 0,1.751 0.515,3.035 1.534,3.839 1.02,0.806 2.19,1.208 3.51,1.208 1.321,0 2.509,-0.402 3.567,-1.208 0.211,-0.16 0.402,-0.341 0.57,-0.539 0.427,-0.789 0.643,-1.762 0.643,-2.925 l 0,-1.688 0,-10.164 c 0.785,-5.99 4.188,-7.949 8.326,-8.783 l 0,18.947 0,1.688 c 0,1.163 0.214,2.139 0.642,2.925 0.169,0.198 0.36,0.379 0.573,0.539 1.058,0.806 2.245,1.208 3.565,1.208 1.31,0 2.499,-0.402 3.558,-1.208 1.057,-0.804 1.584,-2.088 1.591,-3.839 l 0.044,-12.34 c 0.022,-5.939 8.2,-7.792 9.687,-7.79 l 0,18.817 c 0,5.631 -1.491,9.366 -4.466,11.218 -2.975,1.843 -6.229,2.769 -9.769,2.769 -1.771,-0.083 -3.479,-0.339 -5.126,-0.781 -1.648,-0.441 -3.076,-1.184 -4.283,-2.234 -1.451,1.206 -3.058,2.008 -4.827,2.409 -1.77,0.4 -3.57,0.606 -5.421,0.606 C 32.806,16.33 29.645,15.331 26.794,13.477 23.943,11.624 22.514,7.97 22.514,2.505 m -32.91,-8.488 c -0.425,-1.56 -1.033,-2.99 -1.819,-4.296 -0.394,-0.66 -0.837,-1.288 -1.321,-1.885 -0.129,-0.137 -0.256,-0.274 -0.389,-0.404 -1.938,-1.937 -4.409,-3.164 -7.414,-3.68 l -0.379,-0.06 -0.165,-0.022 c -0.926,-0.131 -1.898,-0.194 -2.92,-0.194 -4.597,0 -8.195,1.498 -10.778,4.484 -2.502,2.905 -3.752,6.945 -3.752,12.113 l 0,0.149 0,0.006 0,0.007 0,0.149 c 0,5.166 1.25,9.207 3.752,12.113 2.583,2.985 6.181,4.483 10.778,4.483 1.022,0 1.994,-0.063 2.92,-0.191 l 0.165,-0.025 0.379,-0.059 c 3.005,-0.517 5.477,-1.744 7.414,-3.681 0.133,-0.132 0.26,-0.267 0.389,-0.404 0.487,-0.597 0.927,-1.224 1.321,-1.885 0.786,-1.306 1.394,-2.736 1.819,-4.296 -6.329,-2.99 -11.322,2.287 -14.283,2.287 -1.605,0 -2.874,-0.145 -3.867,-1.198 -1.354,-1.436 -1.983,-3.887 -1.983,-7.27 l 0,-0.023 0.003,-0.007 -0.003,0 0,-0.006 0,-0.024 c 0,-3.381 0.629,-5.834 1.983,-7.27 0.993,-1.056 2.262,-1.198 3.867,-1.198 2.958,0 7.954,5.275 14.283,2.287 M -60.882,7.859 c 6.62,0 11.986,-5.452 11.986,-12.179 0,-6.727 -5.366,-12.179 -11.986,-12.179 -6.622,0 -11.987,5.452 -11.987,12.179 0,6.727 5.365,12.179 11.987,12.179" /></g><g
           transform="translate(448.7344,76.5801)"
           id="g24"><path
             id="path26"
             style="fill:#ffffff;fill-opacity:1;fill-rule:nonzero;stroke:none"
             d="m 0,0 0,-37.307 0,-6.799 0,-26.953 c 6.958,0 19.157,5.989 20.112,15.986 l 0,10.969 0,6.797 c 12.887,-8.567 30.728,-6.815 40.648,4.884 5.325,6.78 7.978,16.118 7.978,28.035 0,22.714 -10.256,37.635 -34.385,37.635 C 13.242,33.247 0,21.508 0,0 m -34.446,-9.086 c 4.659,1.123 8.318,2.318 10.923,3.633 l 0,-7.003 c 0,-5.236 -1.483,-9.319 -4.47,-12.311 -2.988,-2.984 -7.101,-4.492 -12.333,-4.492 -3.18,0 -5.593,0.742 -7.289,2.247 -1.675,1.675 -2.511,3.92 -2.511,6.717 0,2.056 0.645,4.111 1.96,6.167 1.48,1.482 3.92,2.7 7.289,3.631 0,0 2.129,0.478 6.431,1.411 m 29.109,21.295 c 0,6.716 -2.699,11.951 -8.125,15.679 -5.21,3.561 -13.059,5.654 -23.518,5.329 -20.386,-0.631 -25.853,-8.607 -30.018,-20.778 8.278,-4.01 16.019,-1.69 21.676,1.929 5.633,3.607 21.094,5.628 21.51,-3.283 0.173,-3.737 -4.111,-6.165 -12.332,-7.289 -1.675,-0.19 -3.155,-0.43 -4.47,-0.692 -1.314,-0.288 -2.438,-0.432 -3.369,-0.432 -7.076,-1.122 -12.931,-3.369 -17.496,-6.715 -4.566,-3.369 -6.859,-8.963 -6.859,-16.801 0,-8.415 2.51,-14.436 7.551,-18.07 5.044,-3.658 10.924,-5.474 17.64,-5.474 3.372,0 7.243,0.241 11.64,0.696 4.372,0.476 8.532,1.742 12.451,3.797 3.728,1.865 6.955,4.903 9.656,9.108 2.702,4.183 4.063,10.037 4.063,17.495 l 0,25.501 z m -169.78,13.877 C -181.784,21.75 -185.13,13.205 -185.13,0.422 l 0,-24.065 c -0.072,-12.078 7.69,-19.716 19.74,-19.941 l 0,47.956 c 0,5.368 4.931,11.279 13.339,11.279 8.189,0 12.902,-5.968 12.902,-11.279 l 0,-3.95 0,-24.425 c 0.432,-13.986 8.516,-19.754 19.475,-19.581 l 0,44.006 0,3.95 c 0,5.32 5.328,11.25 13.278,11.25 7.938,0 13.226,-6.013 13.226,-11.25 l 0,-28.256 c 0.244,-14.51 8.782,-18.677 19.475,-19.7 l 0,44.006 c 0,13.169 -3.49,21.906 -10.448,26.242 -6.958,4.308 -14.563,6.473 -22.847,6.473 -4.138,-0.192 -8.133,-0.794 -11.987,-1.827 -3.851,-1.037 -7.197,-2.771 -10.014,-5.224 -3.394,2.814 -7.15,4.694 -11.291,5.632 -4.139,0.94 -8.351,1.419 -12.686,1.419 -8.09,-0.384 -15.478,-2.72 -22.149,-7.051 m -6.559,7.147 -0.778,0 -1.461,0 c -9.745,0 -20.483,-0.701 -28.263,-6.85 -9.572,-7.671 -12.365,-21.15 -12.365,-32.911 0,-12.486 0.007,-25.138 0.007,-37.622 9.788,1.282 19.768,5.921 20.35,19.96 l 0,19.69 c 0,5.82 1.32,10.359 4.02,13.059 1.82,1.821 4.306,3.033 7.458,3.629 l -3.422,12.788 -0.066,0.248 0.226,0.126 14.294,7.883 z m -77.716,-42.322 c 4.661,1.124 8.318,2.318 10.921,3.634 l 0,-7.003 c 0,-5.234 -1.482,-9.32 -4.467,-12.309 -2.988,-2.986 -7.1,-4.492 -12.335,-4.492 -3.178,0 -5.592,0.74 -7.29,2.245 -1.671,1.675 -2.507,3.92 -2.507,6.716 0,2.056 0.644,4.112 1.96,6.168 1.48,1.482 3.92,2.7 7.288,3.631 0,0 2.127,0.48 6.43,1.41 m 29.112,21.296 c 0,6.718 -2.703,11.951 -8.128,15.679 -5.209,3.561 -13.057,5.653 -23.519,5.331 -20.385,-0.631 -25.85,-8.609 -30.017,-20.779 8.278,-4.012 16.02,-1.691 21.675,1.93 5.636,3.605 21.095,5.626 21.511,-3.285 0.176,-3.735 -4.11,-6.165 -12.33,-7.287 -1.675,-0.192 -3.157,-0.432 -4.471,-0.694 -1.316,-0.286 -2.439,-0.43 -3.369,-0.43 -7.076,-1.124 -12.931,-3.371 -17.495,-6.717 -4.566,-3.37 -6.859,-8.961 -6.859,-16.804 0,-8.41 2.508,-14.433 7.551,-18.068 5.044,-3.655 10.921,-5.471 17.639,-5.471 3.369,0 7.241,0.238 11.638,0.693 4.374,0.477 8.534,1.745 12.454,3.799 3.728,1.866 6.956,4.902 9.656,9.106 2.701,4.184 4.064,10.04 4.064,17.496 l 0,25.501 z m -68.775,-12.214 0,-37.306 0,-6.8 0,-26.951 c -6.958,0 -19.16,5.987 -20.112,15.984 l 0,10.969 0,6.798 c -12.888,-8.568 -30.728,-6.816 -40.648,4.883 -5.327,6.781 -7.979,16.118 -7.979,28.035 0,22.714 10.256,37.635 34.387,37.635 21.11,0 34.352,-11.739 34.352,-33.247 m -35.458,-24.924 c 4.948,0 8.744,1.856 11.387,5.558 2.643,3.344 3.977,8.383 3.977,15.092 0,6.892 -1.243,12.177 -3.705,15.885 -2.643,3.705 -6.348,5.56 -11.118,5.56 -4.947,0 -8.744,-1.855 -11.387,-5.56 -2.642,-3.708 -3.974,-8.993 -3.974,-15.885 0,-6.348 1.332,-11.387 3.974,-15.092 2.643,-3.702 6.259,-5.558 10.846,-5.558 m -68.5,15.837 c 4.663,1.124 8.32,2.319 10.926,3.635 l 0,-7.003 c 0,-5.236 -1.483,-9.323 -4.47,-12.31 -2.988,-2.989 -7.1,-4.494 -12.336,-4.494 -3.177,0 -5.591,0.741 -7.289,2.247 -1.671,1.673 -2.507,3.918 -2.507,6.716 0,2.056 0.644,4.11 1.96,6.166 1.48,1.482 3.919,2.702 7.289,3.634 0,0 2.126,0.477 6.427,1.409 m 29.113,21.296 c 0,6.715 -2.702,11.949 -8.127,15.679 -5.208,3.561 -13.057,5.653 -23.518,5.329 -20.385,-0.63 -25.851,-8.609 -30.016,-20.777 8.278,-4.014 16.018,-1.69 21.675,1.927 5.634,3.605 21.095,5.626 21.509,-3.282 0.176,-3.737 -4.109,-6.165 -12.331,-7.289 -1.674,-0.191 -3.156,-0.431 -4.47,-0.692 -1.313,-0.287 -2.439,-0.431 -3.369,-0.431 -7.074,-1.122 -12.931,-3.37 -17.495,-6.716 -4.566,-3.369 -6.859,-8.964 -6.859,-16.803 0,-8.413 2.507,-14.437 7.551,-18.069 5.044,-3.657 10.921,-5.473 17.639,-5.473 3.37,0 7.241,0.239 11.641,0.696 4.372,0.477 8.531,1.742 12.451,3.798 3.728,1.864 6.955,4.9 9.656,9.105 2.7,4.185 4.063,10.039 4.063,17.497 l 0,25.501 z M 35.457,-24.924 c -4.947,0 -8.743,1.856 -11.386,5.558 -2.643,3.344 -3.98,8.381 -3.98,15.092 0,6.891 1.246,12.177 3.708,15.885 2.642,3.705 6.347,5.557 11.117,5.557 4.948,0 8.743,-1.852 11.387,-5.557 2.643,-3.708 3.974,-8.994 3.974,-15.885 0,-6.348 -1.331,-11.387 -3.974,-15.092 -2.644,-3.702 -6.259,-5.558 -10.846,-5.558" /></g><g
           transform="translate(267.7451,109.8154)"
           id="g28"><path
             id="path30"
             style="fill:#ffffff;fill-opacity:1;fill-rule:nonzero;stroke:none"
             d="M 0,0 -14.82,-8.175 -11.392,-20.987 0,0 Z" /></g></g></g></g></svg>
